<svg id="icons" enable-background="new 0 0 64 64" height="512" viewBox="0 0 64 64" width="512" xmlns="http://www.w3.org/2000/svg" style="fill:#fff;"><path d="m14 40.997h7.13c1.041 2.259 2.758 4.138 4.896 5.38v1.624l-3-.001c-3.859 0-7 3.14-7 6.999v6.001c0 1.654 1.346 3 3 3h26c1.654 0 3-1.346 3-3v-6.001c0-3.859-3.141-6.999-7-6.999l-3 .001v-1.624c2.139-1.242 3.855-3.121 4.896-5.38h4.578c7.444 0 13.5-6.054 13.5-13.495v-4.003c0-7.235-5.727-13.143-12.885-13.468-2.946-5.933-9.053-10.031-16.115-10.031-8.9 0-16.294 6.501-17.729 15h-.271c-6.065 0-11 4.934-11 10.998v4.003c0 6.063 4.935 10.996 11 10.996zm0-2c-3.91 0-7.235-2.509-8.475-5.998 2.019 2.438 5.068 3.995 8.475 3.995h6.077c.057.687.176 1.354.344 2.003zm16.026-19.996c.002 0 .003-.001.005-.001h6.995v3c0 .552.447 1 1 1 2.206 0 4 1.794 4 4v2.586l-1.293-1.293c-.013-.013-.03-.017-.043-.029-.056-.05-.117-.084-.181-.12-.051-.028-.098-.061-.151-.08-.064-.022-.131-.029-.198-.039-.06-.008-.117-.02-.177-.018-.063.003-.122.021-.185.036-.067.016-.132.03-.195.06-.017.008-.034.007-.051.016-.034.019-3.538 1.881-7.526 1.881-3.968 0-7.492-1.862-7.527-1.881-.016-.009-.034-.007-.05-.015-.066-.031-.134-.045-.204-.062-.058-.013-.113-.031-.172-.033-.066-.003-.13.01-.196.02-.061.009-.12.014-.179.035s-.11.055-.165.087c-.06.034-.117.065-.169.111-.014.013-.031.017-.045.03l-1.293 1.293v-2.585c0-4.411 3.589-7.999 8-7.999zm16 35.998v6.001c0 .552-.448 1-1 1h-26c-.552 0-1-.448-1-1v-6.001c0-2.757 2.243-4.999 5-4.999l3.586.001 1.707 1.706c.016.016.037.021.054.035.065.059.137.104.215.144.033.016.063.035.096.048.109.04.223.066.342.066.104 0 .211-.017.316-.052l2.684-.895 2.684.895c.105.035.212.052.316.052.119 0 .233-.026.343-.066.033-.013.063-.032.095-.048.079-.039.15-.085.216-.144.017-.015.038-.02.054-.035l1.707-1.706 3.585-.001c2.757 0 5 2.242 5 4.999zm-10-6.412-1.271 1.27-2.413-.805c-.037-.013-.074-.006-.111-.014-.068-.015-.134-.025-.205-.025s-.137.011-.205.025c-.037.008-.074.001-.111.014l-2.413.805-1.271-1.27v-1.287c1.253.445 2.596.7 4 .7s2.747-.255 4-.7zm-4-2.587c-5.514 0-10-4.486-10-10v-3.586l2.204-2.204c1.309.596 4.355 1.79 7.796 1.79s6.487-1.194 7.796-1.79l2.204 2.204v3.575c0 .002-.001.003-.001.005s.001.003.001.005v.001c0 5.514-4.486 10-10 10zm15.474-7.003h-3.868c.168-.649.287-1.316.344-2.003h3.524c4.354 0 8.223-2.08 10.692-5.289-1.682 4.264-5.837 7.292-10.692 7.292zm-33.5-21.997h.051c-.019.333-.051.663-.051 1 0 .552.447 1 1 1s1-.448 1-1c0-8.822 7.178-16 16-16s16 7.178 16 16c0 .552.447 1 1 1s1-.448 1-1c0-2.066-.367-4.043-1.011-5.893 5.639.735 10.011 5.557 10.011 11.392 0 6.338-5.159 11.495-11.5 11.495h-3.474v-7.994c0-2.967-2.167-5.431-5-5.91v-3.09c0-.552-.447-1-1-1h-8c-.002 0-.004.001-.007.001-5.51.003-9.993 4.487-9.993 9.999v7.994h-6.026c-4.963 0-9-4.036-9-8.996 0-4.961 4.037-8.998 9-8.998z"/><path d="m32.057 54h-.011c-.552 0-.994.447-.994 1s.452 1 1.005 1c.552 0 1-.447 1-1s-.449-1-1-1z"/><path d="m32.057 58h-.011c-.552 0-.994.447-.994 1s.452 1 1.005 1c.552 0 1-.447 1-1s-.449-1-1-1z"/></svg>