<svg width="308" height="42" viewBox="0 0 308 42" fill="none" xmlns="http://www.w3.org/2000/svg">
<path d="M19.224 17.456C19.224 14.352 18.456 12.048 16.92 10.544C15.416 9.008 13.448 8.24 11.016 8.24C10.44 8.24 9.896 8.256 9.384 8.288C8.872 8.32 8.36 8.384 7.848 8.48V26.336C8.264 26.432 8.76 26.512 9.336 26.576C9.944 26.608 10.52 26.624 11.064 26.624C13.56 26.624 15.544 25.872 17.016 24.368C18.488 22.832 19.224 20.528 19.224 17.456ZM27 17.36C27 19.92 26.616 22.16 25.848 24.08C25.08 26 23.992 27.6 22.584 28.88C21.208 30.16 19.528 31.12 17.544 31.76C15.592 32.4 13.416 32.72 11.016 32.72C10.472 32.72 9.848 32.704 9.144 32.672C8.472 32.64 7.768 32.576 7.032 32.48C6.328 32.416 5.608 32.304 4.872 32.144C4.136 32.016 3.464 31.84 2.856 31.616C1.192 31.008 0.36 29.92 0.36 28.352V5.504C0.36 4.864 0.52 4.368 0.84 4.016C1.192 3.664 1.688 3.376 2.328 3.152C3.64 2.736 5.032 2.464 6.504 2.336C7.976 2.208 9.32 2.144 10.536 2.144C13 2.144 15.24 2.448 17.256 3.056C19.272 3.664 21 4.608 22.44 5.888C23.88 7.136 25 8.72 25.8 10.64C26.6 12.528 27 14.768 27 17.36ZM54.9881 20.432C54.9881 22.32 54.7001 24.032 54.1241 25.568C53.5481 27.072 52.7161 28.352 51.6281 29.408C50.5721 30.464 49.2921 31.28 47.7881 31.856C46.2841 32.432 44.6041 32.72 42.7481 32.72C40.8921 32.72 39.1961 32.448 37.6601 31.904C36.1561 31.328 34.8601 30.512 33.7721 29.456C32.7161 28.4 31.9001 27.12 31.3241 25.616C30.7481 24.08 30.4601 22.352 30.4601 20.432C30.4601 18.576 30.7481 16.896 31.3241 15.392C31.9321 13.856 32.7641 12.56 33.8201 11.504C34.9081 10.448 36.2041 9.632 37.7081 9.056C39.2441 8.48 40.9241 8.192 42.7481 8.192C44.5721 8.192 46.2361 8.48 47.7401 9.056C49.2441 9.632 50.5241 10.464 51.5801 11.552C52.6681 12.608 53.5001 13.888 54.0761 15.392C54.6841 16.896 54.9881 18.576 54.9881 20.432ZM42.7481 13.952C41.2441 13.952 40.0761 14.512 39.2441 15.632C38.4121 16.752 37.9961 18.352 37.9961 20.432C37.9961 22.576 38.3961 24.208 39.1961 25.328C40.0281 26.416 41.2121 26.96 42.7481 26.96C44.2841 26.96 45.4521 26.4 46.2521 25.28C47.0841 24.16 47.5001 22.544 47.5001 20.432C47.5001 18.384 47.0841 16.8 46.2521 15.68C45.4201 14.528 44.2521 13.952 42.7481 13.952ZM72.8093 26.24C72.0733 24.64 71.2253 22.56 70.2653 20C69.3373 17.408 68.3613 14.064 67.3373 9.968C67.7213 9.552 68.2493 9.2 68.9213 8.912C69.6253 8.592 70.3773 8.432 71.1773 8.432C72.2013 8.432 73.0333 8.656 73.6733 9.104C74.3133 9.52 74.8093 10.304 75.1613 11.456C75.8653 13.792 76.5693 16.096 77.2733 18.368C78.0093 20.64 78.7453 22.928 79.4813 25.232H79.6733C80.0573 24.144 80.4573 22.96 80.8733 21.68C81.2893 20.368 81.6893 19.024 82.0733 17.648C82.4573 16.24 82.8093 14.832 83.1293 13.424C83.4813 11.984 83.7853 10.592 84.0413 9.248C85.0333 8.704 86.0733 8.432 87.1613 8.432C88.1853 8.432 89.0653 8.656 89.8013 9.104C90.5373 9.552 90.9053 10.288 90.9053 11.312C90.9053 12.464 90.6973 13.936 90.2812 15.728C89.8973 17.488 89.3693 19.344 88.6973 21.296C88.0573 23.216 87.3213 25.136 86.4893 27.056C85.6893 28.944 84.8573 30.608 83.9933 32.048C82.2013 35.088 80.5853 37.344 79.1453 38.816C77.7053 40.32 76.2493 41.072 74.7773 41.072C73.5933 41.072 72.6173 40.704 71.8493 39.968C71.0813 39.264 70.6173 38.352 70.4573 37.232C71.4813 36.336 72.5373 35.28 73.6253 34.064C74.7453 32.88 75.6893 31.68 76.4573 30.464C75.9133 30.304 75.3373 29.952 74.7293 29.408C74.1533 28.832 73.5133 27.776 72.8093 26.24ZM118.035 20.432C118.035 22.32 117.747 24.032 117.171 25.568C116.595 27.072 115.763 28.352 114.675 29.408C113.619 30.464 112.339 31.28 110.835 31.856C109.331 32.432 107.651 32.72 105.795 32.72C103.939 32.72 102.243 32.448 100.707 31.904C99.203 31.328 97.907 30.512 96.819 29.456C95.763 28.4 94.947 27.12 94.371 25.616C93.795 24.08 93.507 22.352 93.507 20.432C93.507 18.576 93.795 16.896 94.371 15.392C94.979 13.856 95.811 12.56 96.867 11.504C97.955 10.448 99.251 9.632 100.755 9.056C102.291 8.48 103.971 8.192 105.795 8.192C107.619 8.192 109.283 8.48 110.787 9.056C112.291 9.632 113.571 10.464 114.627 11.552C115.715 12.608 116.547 13.888 117.123 15.392C117.731 16.896 118.035 18.576 118.035 20.432ZM105.795 13.952C104.291 13.952 103.123 14.512 102.291 15.632C101.459 16.752 101.043 18.352 101.043 20.432C101.043 22.576 101.443 24.208 102.243 25.328C103.075 26.416 104.259 26.96 105.795 26.96C107.331 26.96 108.499 26.4 109.299 25.28C110.131 24.16 110.547 22.544 110.547 20.432C110.547 18.384 110.131 16.8 109.299 15.68C108.467 14.528 107.299 13.952 105.795 13.952ZM144.679 27.2C144.679 28.704 144.023 29.856 142.711 30.656C141.687 31.296 140.423 31.792 138.919 32.144C137.415 32.528 135.751 32.72 133.927 32.72C132.199 32.72 130.631 32.528 129.223 32.144C127.815 31.792 126.599 31.216 125.575 30.416C124.583 29.616 123.799 28.608 123.223 27.392C122.679 26.176 122.407 24.704 122.407 22.976V9.008C122.759 8.912 123.223 8.816 123.799 8.72C124.375 8.624 125.015 8.576 125.719 8.576C127.159 8.576 128.183 8.816 128.791 9.296C129.431 9.776 129.751 10.688 129.751 12.032V22.928C129.751 24.368 130.119 25.408 130.855 26.048C131.591 26.656 132.631 26.96 133.975 26.96C134.807 26.96 135.495 26.896 136.039 26.768C136.615 26.608 137.047 26.448 137.335 26.288V9.008C137.655 8.912 138.103 8.816 138.679 8.72C139.255 8.624 139.895 8.576 140.599 8.576C142.039 8.576 143.079 8.816 143.719 9.296C144.359 9.776 144.679 10.688 144.679 12.032V27.2ZM173.352 20.144L181.656 28.208C181.496 29.552 181.08 30.592 180.408 31.328C179.768 32.032 178.84 32.384 177.624 32.384C176.696 32.384 175.88 32.16 175.176 31.712C174.472 31.264 173.688 30.528 172.824 29.504L167.112 22.736V31.952C166.792 32.048 166.344 32.128 165.768 32.192C165.192 32.288 164.552 32.336 163.848 32.336C162.408 32.336 161.368 32.112 160.728 31.664C160.088 31.184 159.768 30.272 159.768 28.928V0.751999C160.12 0.655998 160.584 0.559999 161.16 0.464C161.736 0.367999 162.376 0.319999 163.08 0.319999C164.52 0.319999 165.544 0.559999 166.152 1.04C166.792 1.52 167.112 2.432 167.112 3.776V17.36L175.8 8.528C177.304 8.528 178.504 8.864 179.4 9.536C180.296 10.208 180.744 11.04 180.744 12.032C180.744 12.896 180.44 13.664 179.832 14.336C179.256 14.976 178.344 15.84 177.096 16.928L173.352 20.144ZM200.616 17.264C200.616 16.144 200.28 15.312 199.608 14.768C198.936 14.224 198.04 13.952 196.92 13.952C196.152 13.952 195.448 14.048 194.808 14.24C194.168 14.432 193.576 14.672 193.032 14.96V31.952C192.712 32.048 192.264 32.128 191.688 32.192C191.112 32.288 190.472 32.336 189.768 32.336C188.328 32.336 187.288 32.112 186.648 31.664C186.008 31.184 185.688 30.272 185.688 28.928V14.096C185.688 13.264 185.864 12.592 186.216 12.08C186.568 11.568 187.064 11.088 187.704 10.64C188.728 9.904 190.04 9.312 191.64 8.864C193.272 8.416 195.064 8.192 197.016 8.192C200.504 8.192 203.192 8.96 205.08 10.496C207 12.032 207.96 14.224 207.96 17.072V31.952C207.608 32.048 207.144 32.128 206.568 32.192C205.992 32.288 205.352 32.336 204.648 32.336C203.208 32.336 202.168 32.112 201.528 31.664C200.92 31.184 200.616 30.272 200.616 28.928V17.264ZM236.863 20.432C236.863 22.32 236.575 24.032 235.999 25.568C235.423 27.072 234.591 28.352 233.503 29.408C232.447 30.464 231.167 31.28 229.663 31.856C228.159 32.432 226.479 32.72 224.623 32.72C222.767 32.72 221.071 32.448 219.535 31.904C218.031 31.328 216.735 30.512 215.647 29.456C214.591 28.4 213.775 27.12 213.199 25.616C212.623 24.08 212.335 22.352 212.335 20.432C212.335 18.576 212.623 16.896 213.199 15.392C213.807 13.856 214.639 12.56 215.695 11.504C216.783 10.448 218.079 9.632 219.583 9.056C221.119 8.48 222.799 8.192 224.623 8.192C226.447 8.192 228.111 8.48 229.615 9.056C231.119 9.632 232.399 10.464 233.455 11.552C234.543 12.608 235.375 13.888 235.951 15.392C236.559 16.896 236.863 18.576 236.863 20.432ZM224.623 13.952C223.119 13.952 221.951 14.512 221.119 15.632C220.287 16.752 219.871 18.352 219.871 20.432C219.871 22.576 220.271 24.208 221.071 25.328C221.903 26.416 223.087 26.96 224.623 26.96C226.159 26.96 227.327 26.4 228.127 25.28C228.959 24.16 229.375 22.544 229.375 20.432C229.375 18.384 228.959 16.8 228.127 15.68C227.295 14.528 226.127 13.952 224.623 13.952ZM257.178 18.272C256.89 19.456 256.57 20.672 256.218 21.92C255.866 23.168 255.514 24.384 255.162 25.568C254.81 26.752 254.474 27.84 254.154 28.832C253.834 29.824 253.578 30.64 253.386 31.28C252.522 32.048 251.146 32.432 249.258 32.432C248.106 32.432 247.098 32.272 246.234 31.952C245.37 31.632 244.794 31.152 244.506 30.512C244.154 29.744 243.738 28.528 243.258 26.864C242.778 25.2 242.298 23.376 241.818 21.392C241.37 19.408 240.938 17.392 240.522 15.344C240.106 13.296 239.77 11.504 239.514 9.968C239.898 9.552 240.426 9.2 241.098 8.912C241.802 8.592 242.554 8.432 243.354 8.432C244.378 8.432 245.21 8.672 245.85 9.152C246.49 9.6 246.89 10.384 247.05 11.504C247.37 13.744 247.642 15.664 247.866 17.264C248.122 18.864 248.346 20.224 248.538 21.344C248.73 22.464 248.89 23.376 249.018 24.08C249.178 24.752 249.29 25.28 249.354 25.664H249.546C249.674 25.152 249.866 24.384 250.122 23.36C250.378 22.336 250.682 21.184 251.034 19.904C251.386 18.592 251.754 17.2 252.138 15.728C252.554 14.224 252.954 12.72 253.338 11.216C253.882 10.896 254.442 10.656 255.018 10.496C255.626 10.304 256.346 10.208 257.178 10.208C258.202 10.208 259.066 10.384 259.77 10.736C260.506 11.056 260.97 11.552 261.162 12.224C261.578 13.664 261.978 15.088 262.362 16.496C262.746 17.872 263.098 19.152 263.418 20.336C263.738 21.52 264.01 22.576 264.234 23.504C264.49 24.432 264.682 25.152 264.81 25.664H265.05C265.498 23.136 265.93 20.496 266.346 17.744C266.762 14.96 267.146 12.144 267.498 9.296C268.01 9.008 268.554 8.8 269.13 8.672C269.706 8.512 270.282 8.432 270.858 8.432C271.85 8.432 272.666 8.656 273.306 9.104C273.978 9.52 274.314 10.256 274.314 11.312C274.314 11.792 274.218 12.544 274.026 13.568C273.866 14.592 273.642 15.744 273.354 17.024C273.098 18.304 272.794 19.664 272.442 21.104C272.09 22.512 271.738 23.872 271.386 25.184C271.034 26.496 270.682 27.696 270.33 28.784C270.01 29.872 269.738 30.704 269.514 31.28C269.162 31.632 268.57 31.904 267.738 32.096C266.906 32.32 266.01 32.432 265.05 32.432C262.618 32.432 261.194 31.84 260.778 30.656C260.554 30.016 260.282 29.232 259.962 28.304C259.642 27.376 259.306 26.368 258.954 25.28C258.634 24.16 258.314 23.008 257.994 21.824C257.674 20.608 257.402 19.424 257.178 18.272ZM291.617 22.016C291.105 21.664 290.641 21.168 290.225 20.528C289.809 19.888 289.601 19.104 289.601 18.176C289.601 17.28 289.841 16.624 290.321 16.208C290.801 15.76 291.521 15.408 292.481 15.152L296.129 14.24C297.217 13.888 298.017 13.472 298.529 12.992C299.041 12.512 299.297 11.808 299.297 10.88C299.297 10.08 298.945 9.36 298.241 8.72C297.569 8.08 296.433 7.76 294.833 7.76C293.521 7.76 292.273 7.936 291.089 8.288C289.937 8.608 288.993 9.024 288.257 9.536C287.745 9.152 287.313 8.688 286.961 8.144C286.641 7.6 286.481 6.96 286.481 6.224C286.481 5.456 286.705 4.784 287.153 4.208C287.633 3.6 288.273 3.104 289.073 2.72C289.905 2.336 290.897 2.048 292.049 1.856C293.201 1.664 294.449 1.568 295.793 1.568C297.617 1.568 299.233 1.808 300.641 2.288C302.049 2.736 303.233 3.376 304.193 4.208C305.153 5.008 305.873 5.984 306.353 7.136C306.865 8.288 307.121 9.536 307.121 10.88C307.121 13.664 306.225 15.872 304.433 17.504C302.673 19.104 300.001 20.272 296.417 21.008L291.617 22.016ZM290.225 28.592C290.225 27.376 290.593 26.384 291.329 25.616C292.097 24.816 293.153 24.416 294.497 24.416C295.809 24.416 296.833 24.816 297.569 25.616C298.337 26.384 298.721 27.376 298.721 28.592C298.721 29.808 298.337 30.816 297.569 31.616C296.833 32.384 295.809 32.768 294.497 32.768C293.153 32.768 292.097 32.384 291.329 31.616C290.593 30.816 290.225 29.808 290.225 28.592Z" fill="#1754CA"/>
</svg>
