<?xml version="1.0" encoding="iso-8859-1"?>
<!-- Generator: Adobe Illustrator 19.0.0, SVG Export Plug-In . SVG Version: 6.00 Build 0)  -->
<svg version="1.1" id="Capa_1" xmlns="http://www.w3.org/2000/svg" xmlns:xlink="http://www.w3.org/1999/xlink" x="0px" y="0px"
	 viewBox="0 0 480 480" style="enable-background:new 0 0 480 480; fill:#fff;" xml:space="preserve">
<g>
	<g>
		<path d="M440,80H257.12c-8.035,0.024-15.546-3.984-20-10.672l-12.968-19.52C216.746,38.671,204.254,31.985,190.88,32H40
			C17.92,32.026,0.026,49.92,0,72v336c0.026,22.08,17.92,39.974,40,40h400c22.08-0.026,39.974-17.92,40-40V120
			C479.974,97.92,462.08,80.026,440,80z M464,408c0,13.255-10.745,24-24,24H40c-13.255,0-24-10.745-24-24V168
			c0-13.255,10.745-24,24-24h400c13.255,0,24,10.745,24,24V408z M464,136c-0.312-0.24-0.672-0.408-0.992-0.632
			c-0.648-0.456-1.328-0.856-2.008-1.272c-1.361-0.851-2.772-1.62-4.224-2.304c-0.8-0.36-1.544-0.696-2.336-1.008
			c-1.568-0.595-3.171-1.092-4.8-1.488c-0.752-0.184-1.472-0.416-2.24-0.56c-2.438-0.476-4.916-0.723-7.4-0.736H40
			c-2.49,0.018-4.973,0.269-7.416,0.752c-0.8,0.144-1.488,0.376-2.24,0.56c-1.63,0.395-3.233,0.891-4.8,1.488
			c-0.8,0.312-1.6,0.656-2.344,1.008c-1.451,0.684-2.861,1.451-4.224,2.296c-0.672,0.424-1.36,0.8-2.008,1.28
			c-0.32,0.224-0.68,0.392-0.992,0.632L16,72c0-13.255,10.745-24,24-24h150.88c8.035-0.024,15.546,3.984,20,10.672l12.968,19.52
			C231.254,89.329,243.746,96.015,257.12,96H440c13.255,0,24,10.745,24,24V136z"/>
	</g>
</g>
<g>
	<g>
		<path d="M304.564,216.044C292.41,191.504,267.386,175.983,240,176c-39.764-0.024-72.02,32.191-72.044,71.956
			c-0.017,27.386,15.504,52.41,40.044,64.564V320c0,4.418,3.582,8,8,8h48c4.418,0,8-3.582,8-8v-7.48
			C307.633,294.871,322.213,251.678,304.564,216.044z M291.917,269.019c-5.691,14.074-16.851,25.234-30.925,30.925
			c-3.019,1.225-4.993,4.158-4.992,7.416V312h-32v-4.64c0.001-3.258-1.973-6.191-4.992-7.416
			c-28.673-11.594-42.518-44.236-30.925-72.909c11.594-28.673,44.236-42.518,72.909-30.925
			C289.665,207.704,303.51,240.347,291.917,269.019z"/>
	</g>
</g>
<g>
	<g>
		<path d="M264,360h-48c-4.418,0-8,3.582-8,8s3.582,8,8,8h48c4.418,0,8-3.582,8-8S268.418,360,264,360z"/>
	</g>
</g>
<g>
	<g>
		<path d="M264,336h-48c-4.418,0-8,3.582-8,8s3.582,8,8,8h48c4.418,0,8-3.582,8-8S268.418,336,264,336z"/>
	</g>
</g>
<g>
	<g>
		<path d="M248,384h-16c-4.418,0-8,3.582-8,8s3.582,8,8,8h16c4.418,0,8-3.582,8-8S252.418,384,248,384z"/>
	</g>
</g>
<g>
</g>
<g>
</g>
<g>
</g>
<g>
</g>
<g>
</g>
<g>
</g>
<g>
</g>
<g>
</g>
<g>
</g>
<g>
</g>
<g>
</g>
<g>
</g>
<g>
</g>
<g>
</g>
<g>
</g>
</svg>
